<svg width="338" height="129" viewBox="0 0 338 129" fill="none" xmlns="http://www.w3.org/2000/svg">
<g filter="url(#filter0_dd_15_1858)">
<path d="M314.881 126.147C314.734 126.408 314.587 126.669 314.291 126.954C313.371 126.974 312.6 126.964 311.829 126.964C216.296 126.964 120.763 126.964 25.2296 126.965C24.3921 126.965 23.5545 126.988 22.717 127C22.5227 126.834 22.3285 126.667 22.1259 126.34C22.1255 123.239 22.1156 120.298 22.1544 117.359C22.1636 116.669 21.9659 116.424 21.2522 116.436C18.5802 116.482 15.9072 116.472 13.1752 116.475C13.0364 116.474 12.9569 116.48 12.8158 116.484C12.7131 116.484 12.672 116.487 12.5704 116.482C12.4289 116.48 12.348 116.486 12.2129 116.489C12.1227 116.484 12.0866 116.483 12.0148 116.437C11.8568 116.294 11.7345 116.198 11.6122 116.102C11.626 109.41 11.6673 102.716 11.6122 96.0241C11.6065 95.3394 11.0963 94.6132 10.6968 93.9848C7.80656 89.4387 5.75401 84.5178 4.30268 79.359C3.61182 76.9034 3.19688 74.3616 2.78867 71.8376C2.43368 69.6426 2.26403 67.4176 2.00267 65.1152C1.99697 62.8078 2.00106 60.5911 2.00868 58.1873C2.07277 54.5845 2.39742 51.2035 3.23203 47.878C3.78855 45.6605 4.24188 43.4171 4.80191 41.2005C5.28802 39.2766 5.85918 37.3742 6.39275 35.4623C7.22412 33.5593 8.03281 31.6459 8.89449 29.7567C9.51017 28.4069 10.1969 27.0895 10.8744 25.6238C11.0231 25.2779 11.1493 25.0657 11.3208 24.8233C11.4016 24.7314 11.4372 24.6697 11.5066 24.5497C12.4619 23.1458 13.4001 21.8112 14.2925 20.4467C14.4996 20.13 14.6567 19.7114 14.6574 19.3393C14.6685 13.9219 14.6491 8.50438 14.648 3.01348C14.8089 2.65095 14.2514 2.03689 15.1468 2.05705C15.3849 2.03407 15.5428 2.00748 15.7904 2C16.2152 2.02432 16.5502 2.03407 16.8852 2.03408C117.971 2.03481 219.056 2.03493 320.142 2.03272C320.542 2.03271 320.943 1.99902 321.421 2.00298C321.79 2.10748 322.083 2.19004 322.375 2.27261C322.36 8.00265 322.338 13.7327 322.35 19.4627C322.351 19.8564 322.532 20.3115 322.77 20.6336C325.929 24.9049 328.271 29.6064 330.037 34.5913C331.032 37.398 331.987 40.2353 332.689 43.1246C333.394 46.0267 333.755 49.0119 334.281 51.9581C335.049 56.259 335.175 60.6021 334.982 64.9459C334.873 67.404 334.633 69.8802 334.166 72.2927C333.516 75.6447 332.768 78.9981 331.749 82.2526C330.555 86.0628 328.836 89.68 326.779 93.1202C326.369 93.8058 325.972 94.4986 325.55 95.2544C325.422 95.7104 325.219 96.0998 325.218 96.49C325.194 103.084 325.194 109.677 325.122 116.37C324.97 116.477 324.886 116.486 324.722 116.49C324.481 116.486 324.32 116.486 324.158 116.486C324.083 116.48 324.008 116.473 323.779 116.471C321.085 116.467 318.544 116.504 316.005 116.428C315.043 116.399 314.836 116.729 314.853 117.624C314.908 120.464 314.878 123.306 314.881 126.147ZM151.729 6.74436C128.769 6.74435 105.81 6.74434 82.8509 6.74434C62.1707 6.74435 41.4905 6.74411 20.8102 6.74495C19.4723 6.74501 19.4705 6.74889 19.4702 8.07261C19.4693 12.2958 19.4936 16.5193 19.442 20.7418C19.435 21.3165 19.1447 21.9466 18.8232 22.4466C18.0848 23.5949 17.181 24.638 16.4591 25.7954C11.8443 33.1943 9.19488 41.3336 7.73709 49.8607C6.90927 54.7029 6.31925 59.6128 6.82554 64.5409C7.20711 68.2551 7.65278 71.9802 8.38774 75.6365C9.66764 82.0038 12.3113 87.8366 15.9166 93.2403C16.2265 93.7047 16.4048 94.3486 16.4088 94.9109C16.4457 100.072 16.4305 105.234 16.4305 110.396C16.4305 110.752 16.4305 111.108 16.4305 111.557C16.9194 111.557 17.2807 111.556 17.6419 111.556C20.2563 111.556 22.8706 111.556 25.485 111.557C26.9852 111.557 26.986 111.557 26.9864 113.01C26.987 115.691 26.9835 118.372 26.9904 121.054C26.9913 121.402 27.0441 121.751 27.0768 122.146C27.6303 122.146 28.0634 122.146 28.4965 122.146C121.742 122.146 214.987 122.146 308.232 122.146C308.434 122.146 308.638 122.122 308.835 122.151C309.696 122.276 310.001 121.973 309.982 121.055C309.922 118.207 309.98 115.357 309.947 112.509C309.939 111.765 310.172 111.529 310.927 111.54C313.741 111.581 316.557 111.559 319.373 111.553C319.728 111.553 320.084 111.511 320.524 111.483C320.524 111.032 320.524 110.67 320.524 110.309C320.524 105.147 320.518 99.9856 320.535 94.824C320.536 94.412 320.581 93.9246 320.797 93.6006C322.871 90.4956 324.631 87.2298 326.043 83.7721C327.97 79.0535 329.267 74.1599 329.743 69.0972C330.059 65.7375 330.08 62.3432 330.096 58.9638C330.116 54.5977 329.501 50.276 328.413 46.0664C327.375 42.0445 326.15 38.0523 324.708 34.1579C323.135 29.9091 320.943 25.948 318.064 22.3988C317.723 21.9786 317.477 21.3474 317.471 20.8109C317.424 16.5212 317.444 12.2307 317.444 7.94052C317.444 7.5828 317.444 7.22509 317.444 6.74441C262.183 6.74441 207.056 6.74441 151.729 6.74436Z" fill="#FCFAFA"/>
</g>
<path d="M151.829 6.74433C207.057 6.74436 262.183 6.74436 317.445 6.74436C317.445 7.22503 317.445 7.58275 317.445 7.94047C317.445 12.2307 317.424 16.5211 317.471 20.8108C317.477 21.3474 317.723 21.9785 318.064 22.3988C320.943 25.9479 323.135 29.909 324.708 34.1578C326.151 38.0522 327.375 42.0445 328.414 46.0663C329.501 50.276 330.116 54.5976 330.096 58.9637C330.081 62.3432 330.06 65.7375 329.744 69.0972C329.267 74.1599 327.97 79.0535 326.043 83.7721C324.632 87.2298 322.871 90.4955 320.797 93.6005C320.581 93.9246 320.537 94.4119 320.535 94.8239C320.518 99.9855 320.524 105.147 320.524 110.309C320.524 110.67 320.524 111.032 320.524 111.483C320.084 111.511 319.729 111.553 319.373 111.553C316.557 111.559 313.742 111.581 310.927 111.54C310.172 111.529 309.939 111.765 309.947 112.509C309.98 115.357 309.922 118.207 309.982 121.055C310.001 121.972 309.696 122.276 308.835 122.151C308.638 122.122 308.434 122.146 308.233 122.146C214.987 122.146 121.742 122.146 28.4967 122.146C28.0636 122.146 27.6305 122.146 27.0769 122.146C27.0443 121.751 26.9915 121.402 26.9906 121.054C26.9836 118.372 26.9872 115.691 26.9865 113.009C26.9862 111.557 26.9853 111.557 25.4851 111.557C22.8708 111.556 20.2564 111.556 17.6421 111.556C17.2808 111.556 16.9195 111.556 16.4307 111.556C16.4307 111.108 16.4307 110.752 16.4307 110.396C16.4307 105.234 16.4458 100.072 16.409 94.9108C16.4049 94.3486 16.2266 93.7046 15.9168 93.2402C12.3114 87.8366 9.6678 82.0038 8.3879 75.6364C7.65293 71.9801 7.20726 68.255 6.8257 64.5409C6.3194 59.6127 6.90942 54.7028 7.73724 49.8606C9.19503 41.3335 11.8445 33.1943 16.4592 25.7953C17.1811 24.6379 18.085 23.5948 18.8233 22.4466C19.1448 21.9465 19.4352 21.3164 19.4422 20.7418C19.4938 16.5192 19.4695 12.2957 19.4704 8.07255C19.4707 6.74883 19.4724 6.74496 20.8104 6.7449C41.4906 6.74406 62.1708 6.74429 82.851 6.74429C105.81 6.74429 128.77 6.7443 151.829 6.74433ZM188.919 41.8834C184.145 45.4545 182.06 50.2783 183.103 56.0784C184.362 63.0766 190.134 67.3191 196.464 68.1685C200.027 68.6467 203.494 68.1352 206.758 66.4365C212.675 63.3572 216.08 56.9025 214.544 50.3055C213.2 44.5331 207.742 39.7061 201.804 38.9519C200.639 38.8039 199.471 38.6817 198.053 38.5187C198.657 38.23 199.014 38.0676 199.364 37.8902C204.471 35.3019 208.738 31.8069 211.268 26.5438C212.914 23.1214 212.338 19.6623 209.018 17.3571C207.48 16.2893 205.746 15.7513 203.898 15.5329C200.84 15.1715 198.1 16.1226 195.516 17.6139C194.677 18.0979 194.633 18.9988 195.268 19.7603C195.478 20.0125 195.739 20.225 195.989 20.4411C197.067 21.3728 197.368 22.6196 196.894 23.9673C196.338 25.5436 195.281 26.7183 193.956 27.6568C190.319 30.2327 186.082 30.8641 181.806 31.1436C175.613 31.5484 169.526 30.6041 163.507 29.2297C159.996 28.4279 156.505 27.534 153.018 26.6293C149.825 25.8009 146.65 24.9046 143.468 24.0341C140.251 23.1543 137.048 22.2238 133.818 21.4003C130.976 20.6759 128.118 19.9937 125.241 19.4298C122.095 18.8132 118.931 18.2457 115.751 17.8508C110.617 17.2134 105.462 17.2307 100.317 17.8206C97.0524 18.1949 93.873 18.9199 90.9019 20.3633C87.4972 22.0174 85.0264 24.5775 84.1206 28.3008C83.1232 32.4006 83.4413 36.4872 85.1513 40.3738C86.4895 43.4153 88.5536 45.8348 91.6827 47.2088C94.1404 48.288 96.6726 47.9802 99.1858 47.5786C101.05 47.2807 102.803 46.5937 104.192 45.2559C105.282 44.2058 106.042 42.9659 105.906 41.3108C105.344 41.3986 104.922 41.4788 104.495 41.5288C102.712 41.7383 100.53 40.6003 99.6979 39.0359C98.9771 37.6814 99.536 36.103 101.167 35.055C103.871 33.3177 106.962 32.8819 110.056 32.7024C115.28 32.3993 120.219 34.007 125.202 35.2585C127.854 35.9245 130.499 36.6246 133.17 37.2069C135.888 37.7994 138.633 38.2661 141.502 38.814C141.237 38.8956 141.089 38.9513 140.937 38.9864C137.69 39.7353 134.783 41.1384 132.459 43.5694C128.721 47.4783 127.382 52.1771 128.889 57.3153C130.724 63.5698 135.339 67.0679 141.634 68.1118C146.303 68.8861 150.751 67.9183 154.589 64.9531C157.967 62.3429 160.025 58.9023 160.365 54.6333C160.833 48.7634 157.544 43.2408 152.244 40.6071C151.818 40.3957 151.424 40.122 151.015 39.8773C151.98 39.8204 152.871 39.9537 153.765 39.9793C157.112 40.075 160.46 40.1516 163.808 40.1954C164.46 40.204 164.678 40.395 164.676 41.0586C164.656 47.9622 164.669 54.8659 164.658 61.7695C164.656 63.2162 163.904 64.1655 162.496 64.4993C161.949 64.629 161.369 64.6247 160.804 64.6674C159.379 64.7747 158.643 66.2574 159.4 67.4609C159.952 68.3386 160.824 68.375 161.697 68.3762C168.401 68.385 175.104 68.3832 181.808 68.3757C182.241 68.3752 182.678 68.3276 183.106 68.2556C184.333 68.0487 184.894 66.958 184.455 65.7888C184.072 64.7696 183.247 64.6898 182.352 64.6261C180.262 64.4772 179.401 63.5778 179.386 61.5288C179.348 56.5699 179.322 51.6109 179.296 46.6519C179.288 45.2442 179.313 43.8361 179.287 42.4288C179.275 41.7604 179.485 41.4016 180.211 41.4928C180.409 41.5178 180.612 41.4989 180.813 41.498C183.544 41.4851 186.285 41.6338 188.969 40.9141C189.213 40.8487 189.512 40.9896 189.994 41.069C189.554 41.4041 189.295 41.6014 188.919 41.8834ZM52.0814 100.723C52.0814 101.528 52.0163 102.339 52.1001 103.134C52.1803 103.896 51.8319 104.221 51.1862 104.422C48.9405 105.12 47.3001 106.593 46.1841 108.605C45.5982 109.661 45.105 110.824 45.4879 112.149C45.6918 112.166 45.8548 112.192 46.0178 112.192C55.0667 112.194 64.1156 112.194 73.1645 112.194C73.265 112.194 73.4073 112.236 73.459 112.185C73.6987 111.951 74.136 111.656 74.1036 111.445C73.5907 108.097 72.0161 105.471 67.8043 104.906C67.1221 104.814 66.9389 104.58 66.9869 103.978C67.0081 103.711 67.0236 103.437 66.9843 103.175C66.8384 102.199 67.2471 101.943 68.2069 101.949C74.5409 101.99 80.876 102.029 87.2092 101.95C91.8293 101.893 95.4923 99.8892 98.061 96.0176C99.6543 93.616 99.9461 90.9185 99.9901 88.0837C100.094 81.4059 94.3225 75.4638 87.3838 75.5158C75.8555 75.6023 64.3259 75.5598 52.7972 75.5118C51.4492 75.5062 50.0795 75.216 48.7626 74.8867C47.5796 74.5909 47.4357 73.921 48.1943 72.9906C48.5722 72.5273 48.9671 72.0774 49.3666 71.6325C50.2964 70.5971 49.974 69.384 48.5738 69.2477C47.4258 69.1359 46.1603 69.2579 45.0782 69.6441C42.8329 70.4456 41.3285 72.02 41.0716 74.5331C40.7871 77.3152 41.8728 79.4142 44.2815 80.7958C46.3252 81.9681 48.5778 82.4404 50.9095 82.4452C51.8223 82.447 52.111 82.6831 52.1035 83.6312C52.0587 89.2613 52.0814 94.8919 52.0814 100.723ZM149.819 85.3197C149.618 85.0148 149.378 84.7277 149.226 84.4001C149.062 84.0491 148.835 83.6334 148.897 83.2934C149.001 82.719 149.519 82.6483 150.071 82.6507C154.327 82.6695 158.583 82.6596 162.839 82.6642C163.144 82.6645 163.45 82.7099 163.865 82.7432C162.941 83.7199 162.139 84.5657 161.339 85.4122C154.819 92.3041 148.314 99.2101 141.764 106.073C140.812 107.071 140.166 108.055 140.393 109.491C140.487 110.08 140.463 110.701 140.396 111.297C140.288 112.257 140.636 112.544 141.613 112.541C155.051 112.511 168.49 112.521 181.928 112.518C182.247 112.518 182.566 112.48 182.841 112.463C182.901 112.293 182.941 112.231 182.942 112.17C182.954 111.366 182.912 110.558 182.981 109.759C183.056 108.899 182.863 108.242 182.144 107.677C181.665 107.3 181.299 106.742 180.979 106.207C180.358 105.167 180.533 104.496 181.551 103.849C182.306 103.37 183.133 102.995 183.849 102.467C185.306 101.391 185.275 99.489 183.728 98.5529C182.893 98.0476 181.907 97.6775 180.945 97.5203C179.274 97.2473 177.018 97.8965 176.349 99.9047C175.956 101.085 175.715 102.346 175.627 103.587C175.558 104.547 175.831 105.532 175.954 106.515C171.219 106.515 166.587 106.515 161.832 106.515C162.071 106.227 162.214 106.047 162.366 105.874C168.689 98.6713 174.925 91.389 181.389 84.3152C183.338 82.1824 184.368 80.0872 183.998 77.2196C183.813 75.7876 183.966 75.7674 182.475 75.7673C169.707 75.7672 156.939 75.7672 144.171 75.7672C141.599 75.7672 141.649 75.7686 141.575 78.3572C141.544 79.4487 141.689 80.307 142.764 80.8261C143.08 80.9785 143.347 81.2696 143.581 81.5446C144.42 82.5301 144.377 83.2039 143.398 84.0229C142.89 84.4473 142.321 84.7977 141.779 85.1817C139.474 86.8159 140.094 90.4973 142.299 91.3182C144.353 92.0826 146.258 91.6483 147.953 90.3577C149.553 89.1396 150.423 87.5751 149.819 85.3197ZM189.961 112.521C203.298 112.521 216.635 112.521 229.971 112.521C230.239 112.521 230.508 112.506 230.775 112.522C231.292 112.552 231.495 112.32 231.48 111.805C231.456 111.002 231.435 110.195 231.487 109.394C231.529 108.738 231.302 108.287 230.84 107.821C230.288 107.265 229.854 106.588 229.402 105.939C228.793 105.064 229.199 104.424 229.964 103.937C230.718 103.457 231.542 103.08 232.265 102.561C233.805 101.454 233.774 99.4842 232.163 98.5059C231.413 98.0502 230.536 97.7216 229.674 97.5476C227.916 97.1927 225.604 97.9839 224.79 99.9802C224.064 101.761 224.041 103.549 224.343 105.39C224.404 105.765 224.441 106.143 224.493 106.542C219.752 106.542 215.145 106.542 210.429 106.542C210.604 106.264 210.698 106.061 210.84 105.9C213.763 102.573 216.693 99.2526 219.618 95.9277C223.115 91.9516 226.469 87.8356 230.161 84.0491C232.161 81.9974 232.814 79.8474 232.557 77.1538C232.425 75.7802 232.533 75.7679 231.169 75.7679C218.268 75.7674 205.367 75.762 192.466 75.7721C189.77 75.7742 190.216 75.4108 190.12 78.1245C190.077 79.3372 190.298 80.1989 191.427 80.9502C193.166 82.107 193.04 83.2262 191.359 84.4617C190.618 85.0061 189.775 85.5577 189.315 86.3113C187.869 88.6793 189.583 91.5642 192.426 91.656C193.084 91.6773 193.772 91.5878 194.408 91.4121C197.623 90.5244 200.237 86.7533 197.262 83.8422C197.38 82.8721 197.929 82.6275 198.858 82.639C202.946 82.6896 207.034 82.6609 211.122 82.6609C211.464 82.6609 211.805 82.6609 212.418 82.6609C211.441 83.7267 210.692 84.5682 209.918 85.3861C203.104 92.5872 196.283 99.7808 189.482 106.994C189.214 107.279 189.006 107.732 188.986 108.117C188.922 109.32 188.985 110.53 188.952 111.735C188.935 112.346 189.151 112.613 189.961 112.521ZM271.709 81.1868C270.77 79.6597 269.803 78.149 268.905 76.5976C268.54 75.966 268.097 75.7501 267.38 75.7537C262.118 75.7797 256.856 75.7677 251.595 75.7677C248.576 75.7676 248.554 75.7681 248.619 78.8367C248.629 79.3194 248.802 79.9172 249.12 80.2542C250.488 81.7039 251.924 83.0912 253.367 84.4676C253.805 84.8851 253.875 85.2084 253.563 85.7553C251.461 89.4508 249.396 93.1681 247.31 96.8732C247.198 97.0731 247.002 97.2263 246.759 97.4969C246.644 96.9107 246.591 96.4828 246.474 96.0731C246.072 94.6677 244.876 93.9022 243.408 94.0859C242.093 94.2506 241.147 95.2885 241.055 96.6689C240.932 98.5082 242.128 100.132 243.938 100.601C244.272 100.688 244.593 100.822 245.004 100.963C244.279 102.308 243.662 103.554 242.933 104.731C242.74 105.043 242.213 105.277 241.819 105.312C240.522 105.427 239.205 105.349 237.915 105.504C236.109 105.721 234.911 107.327 235.011 109.201C235.107 110.989 236.515 112.492 238.275 112.506C243.302 112.544 248.33 112.559 253.356 112.502C255.795 112.475 257.371 109.652 256.302 107.449C255.523 105.844 254.148 105.372 252.517 105.341C251.632 105.324 250.746 105.338 249.551 105.338C250.328 104.146 250.916 103.201 251.56 102.295C251.675 102.133 252.022 102.072 252.263 102.071C256.954 102.043 261.646 102.016 266.337 102.042C266.711 102.044 267.225 102.34 267.431 102.657C268.662 104.556 269.797 106.517 271.021 108.42C271.393 108.998 271.253 109.182 270.7 109.454C270.118 109.741 269.535 110.114 269.105 110.589C268.878 110.841 268.835 111.445 268.973 111.782C269.079 112.04 269.584 112.201 269.938 112.274C270.457 112.382 270.999 112.404 271.532 112.408C277.998 112.451 284.465 112.555 290.93 112.494C295.153 112.455 297.577 109.41 296.617 105.455C296.108 103.358 294.561 101.996 292.703 101.009C291.567 100.406 290.388 99.9481 289.08 100.507C288.149 100.906 287.943 101.412 288.388 102.313C288.728 102.998 289.121 103.656 289.464 104.34C289.779 104.968 289.719 105.525 288.996 105.819C288.114 106.176 287.07 105.832 286.554 105.01C284.275 101.38 282.004 97.7443 279.737 94.1067C277.081 89.8454 274.431 85.5799 271.709 81.1868ZM105.887 110.484C105.834 110.814 105.776 111.144 105.731 111.476C105.638 112.168 105.85 112.532 106.643 112.53C115.455 112.514 124.268 112.514 133.08 112.531C133.795 112.533 134.126 112.254 133.967 111.59C133.722 110.566 133.515 109.499 133.058 108.564C131.916 106.227 129.812 105.06 127.408 104.326C127.386 104.182 127.348 104.052 127.348 103.921C127.343 97.4879 127.346 91.0546 127.334 84.6214C127.333 84.0425 127.592 83.8529 128.124 83.6772C131.364 82.608 133.431 80.4768 133.944 77.0108C134.102 75.9401 133.962 75.7705 132.879 75.7701C124.167 75.7669 115.455 75.7745 106.743 75.7575C105.965 75.756 105.633 75.9943 105.727 76.8089C106.14 80.4028 108.254 82.5626 111.552 83.6782C112.198 83.8966 112.401 84.2142 112.385 84.8265C112.365 85.5967 112.38 86.3677 112.38 87.1384C112.38 92.5329 112.381 97.9275 112.38 103.322C112.379 103.895 112.364 104.29 111.595 104.557C108.79 105.531 106.661 107.276 105.887 110.484ZM220.33 48.5177C220.3 51.4932 221.749 53.7235 223.926 55.5645C226.155 57.4504 228.889 58.3451 231.549 59.3896C232.905 59.9225 234.294 60.4224 235.556 61.136C237.288 62.1156 237.232 63.6181 235.501 64.5816C234.172 65.3206 232.73 65.492 231.23 65.2283C228.259 64.706 225.857 63.1923 223.8 61.0403C223.315 60.5324 223.027 60.0332 223.058 59.2943C223.105 58.1911 222.649 57.8209 221.434 57.8046C220.166 57.7875 219.593 58.1905 219.583 59.2486C219.556 62.0973 219.56 64.9467 219.592 67.7953C219.604 68.8023 220.147 69.2366 221.22 69.2525C222.625 69.2734 222.955 69.0273 223.076 67.8673C223.154 67.1213 223.661 66.7367 224.377 66.966C224.879 67.1267 225.369 67.3663 225.818 67.6454C227.799 68.8764 230.005 69.4558 232.277 69.5404C236.96 69.7149 240.956 68.0315 244.197 64.6289C247.453 61.2107 247.088 56.2321 243.171 53.6308C241.377 52.4399 239.171 51.8879 237.218 50.9143C235.057 49.8372 232.922 48.6881 230.875 47.4118C229.943 46.8311 229.252 45.8049 229.528 44.5882C229.808 43.3568 230.68 42.666 231.946 42.3451C233.573 41.9327 235.12 42.2539 236.521 42.9153C239.006 44.0893 241.848 45.0563 241.456 48.7757C241.346 49.814 241.983 50.1158 243.483 50.0723C244.538 50.0416 244.95 49.6637 244.956 48.62C244.972 45.8045 244.971 42.9888 244.958 40.1733C244.953 39.1053 244.462 38.6841 243.301 38.6758C242.003 38.6666 241.459 39.1045 241.423 40.2054C241.407 40.6998 241.42 41.1951 241.42 41.948C240.777 41.7753 240.229 41.754 239.827 41.5005C236.207 39.2149 232.336 38.6849 228.326 40.091C224.342 41.488 221.245 43.8912 220.33 48.5177ZM128.767 67.574C129.583 66.0935 128.911 64.805 127.251 64.6678C124.635 64.4516 123.838 63.5958 123.838 60.9949C123.837 53.3205 123.838 45.6462 123.838 37.9719C123.838 37.617 123.838 37.2621 123.838 36.9267C118.851 36.9267 114.007 36.9267 109.218 36.9267C109.218 37.9329 109.218 38.862 109.218 39.791C109.218 46.3938 109.223 52.9967 109.211 59.5995C109.21 60.4673 109.118 61.3347 109.076 62.2026C109.017 63.4036 108.325 64.112 107.235 64.4116C106.599 64.5864 105.88 64.4845 105.266 64.6997C104.722 64.8899 104.006 65.2553 103.85 65.7097C103.657 66.2694 103.741 67.2192 104.114 67.6038C104.573 68.0772 105.452 68.3458 106.152 68.3513C112.956 68.4041 119.76 68.4029 126.564 68.354C127.276 68.3489 127.984 67.938 128.767 67.574ZM220.714 35.0476C219.547 33.6118 218.454 32.1052 217.188 30.7625C216.163 29.6749 214.795 29.0972 213.257 29.0407C212.42 29.01 211.557 29.0769 211.213 29.9543C210.858 30.858 211.239 31.6911 211.989 32.2533C212.647 32.7473 213.404 33.1091 214.109 33.5428C215.177 34.1997 215.819 35.1503 216.099 36.3604C213.507 37.4265 212.321 38.8152 212.038 41.1355C211.737 43.592 213.749 46.3084 216.187 46.6988C220.312 47.3597 222.9 43.608 222.511 40.3212C222.291 38.462 221.673 36.7759 220.714 35.0476Z" fill="#7F1114"/>
<path d="M188.977 41.8409C189.295 41.6012 189.554 41.404 189.994 41.0688C189.512 40.9895 189.213 40.8485 188.969 40.914C186.285 41.6336 183.544 41.4849 180.813 41.4978C180.612 41.4987 180.408 41.5176 180.21 41.4927C179.485 41.4014 179.274 41.7602 179.287 42.4286C179.313 43.8359 179.288 45.244 179.296 46.6517C179.322 51.6107 179.348 56.5697 179.385 61.5286C179.401 63.5777 180.262 64.4771 182.352 64.6259C183.247 64.6896 184.072 64.7694 184.455 65.7887C184.894 66.9578 184.333 68.0485 183.105 68.2554C182.678 68.3275 182.241 68.375 181.808 68.3755C175.104 68.383 168.401 68.3849 161.697 68.376C160.824 68.3749 159.952 68.3385 159.4 67.4607C158.643 66.2573 159.379 64.7746 160.803 64.6672C161.369 64.6246 161.949 64.6288 162.496 64.4991C163.903 64.1654 164.656 63.216 164.658 61.7693C164.669 54.8657 164.656 47.962 164.675 41.0584C164.677 40.3948 164.46 40.2038 163.808 40.1953C160.46 40.1514 157.112 40.0749 153.765 39.9791C152.871 39.9535 151.98 39.8202 151.015 39.8771C151.424 40.1219 151.818 40.3955 152.244 40.607C157.543 43.2406 160.833 48.7633 160.365 54.6331C160.024 58.9021 157.967 62.3428 154.589 64.953C150.751 67.9181 146.302 68.8859 141.634 68.1116C135.339 67.0677 130.724 63.5697 128.889 57.3151C127.382 52.1769 128.721 47.4781 132.458 43.5692C134.783 41.1383 137.689 39.7351 140.937 38.9863C141.089 38.9512 141.237 38.8955 141.502 38.8139C138.632 38.266 135.887 37.7992 133.17 37.2067C130.499 36.6244 127.854 35.9243 125.202 35.2583C120.219 34.0069 115.28 32.3992 110.056 32.7022C106.962 32.8817 103.871 33.3176 101.167 35.0548C99.5359 36.1028 98.9769 37.6813 99.6977 39.0357C100.53 40.6001 102.712 41.7381 104.495 41.5287C104.921 41.4786 105.344 41.3984 105.906 41.3106C106.042 42.9657 105.282 44.2056 104.192 45.2557C102.803 46.5935 101.05 47.2805 99.1856 47.5785C96.6724 47.9801 94.1402 48.2879 91.6825 47.2086C88.5534 45.8346 86.4893 43.4151 85.1511 40.3737C83.4411 36.487 83.123 32.4004 84.1204 28.3007C85.0262 24.5773 87.497 22.0173 90.9017 20.3632C93.8728 18.9197 97.0522 18.1947 100.317 17.8204C105.462 17.2305 110.617 17.2132 115.751 17.8507C118.931 18.2455 122.095 18.8131 125.241 19.4296C128.118 19.9935 130.975 20.6757 133.817 21.4002C137.048 22.2237 140.251 23.1541 143.468 24.0339C146.65 24.9044 149.825 25.8007 153.018 26.6292C156.505 27.5338 159.996 28.4277 163.507 29.2295C169.526 30.6039 175.613 31.5482 181.806 31.1434C186.082 30.8639 190.319 30.2325 193.956 27.6566C195.281 26.7181 196.338 25.5434 196.893 23.9671C197.368 22.6194 197.067 21.3726 195.989 20.441C195.739 20.2248 195.478 20.0124 195.268 19.7601C194.633 18.9986 194.677 18.0977 195.516 17.6137C198.1 16.1224 200.84 15.1713 203.898 15.5327C205.746 15.7511 207.48 16.2891 209.018 17.3569C212.338 19.6621 212.913 23.1212 211.268 26.5436C208.738 31.8068 204.47 35.3017 199.364 37.89C199.014 38.0674 198.657 38.2298 198.053 38.5186C199.471 38.6815 200.639 38.8038 201.804 38.9517C207.742 39.706 213.199 44.5329 214.544 50.3053C216.08 56.9024 212.675 63.3571 206.758 66.4364C203.493 68.135 200.027 68.6466 196.464 68.1684C190.133 67.3189 184.362 63.0764 183.103 56.0782C182.06 50.2781 184.145 45.4543 188.977 41.8409ZM139.83 54.3311C140.521 56.9362 142.312 58.2335 144.97 57.993C146.819 57.8256 148.069 56.7267 148.684 55.0724C149.272 53.4939 149.051 51.9047 147.874 50.5881C146.478 49.0277 144.393 48.5293 142.623 49.2829C140.656 50.1208 139.628 51.8897 139.83 54.3311ZM203.417 53.9711C203.872 50.8357 200.723 48.3723 197.826 49.0861C195.638 49.6253 194.05 51.6971 194.251 53.9659C194.448 56.1794 196.427 57.9771 198.722 58.0271C201.169 58.0805 203.095 56.48 203.417 53.9711Z" fill="#FEFCFC"/>
<path d="M52.0812 100.623C52.0812 94.8919 52.0585 89.2613 52.1033 83.6312C52.1109 82.6831 51.8221 82.447 50.9093 82.4452C48.5776 82.4404 46.325 81.9681 44.2813 80.7958C41.8726 79.4142 40.7869 77.3152 41.0714 74.5331C41.3283 72.02 42.8327 70.4456 45.078 69.6441C46.1601 69.2579 47.4256 69.1359 48.5736 69.2477C49.9739 69.384 50.2962 70.5971 49.3665 71.6325C48.9669 72.0774 48.572 72.5273 48.1942 72.9906C47.4355 73.921 47.5794 74.5909 48.7624 74.8867C50.0793 75.216 51.449 75.5062 52.797 75.5118C64.3257 75.5598 75.8553 75.6023 87.3836 75.5158C94.3223 75.4638 100.094 81.4059 99.9899 88.0837C99.9459 90.9185 99.6542 93.616 98.0608 96.0176C95.4922 99.8892 91.8291 101.893 87.209 101.95C80.8758 102.029 74.5407 101.99 68.2067 101.949C67.247 101.943 66.8382 102.199 66.9841 103.175C67.0234 103.437 67.0079 103.711 66.9867 103.978C66.9387 104.58 67.1219 104.814 67.8042 104.906C72.0159 105.471 73.5906 108.097 74.1034 111.445C74.1358 111.656 73.6985 111.951 73.4588 112.185C73.4071 112.236 73.2648 112.194 73.1643 112.194C64.1154 112.194 55.0665 112.194 46.0176 112.192C45.8546 112.192 45.6916 112.166 45.4877 112.149C45.1048 110.824 45.5981 109.661 46.1839 108.605C47.2999 106.593 48.9403 105.12 51.186 104.422C51.8317 104.221 52.1801 103.896 52.0999 103.134C52.0161 102.339 52.0812 101.528 52.0812 100.623ZM66.9844 82.6766C66.9844 86.6258 66.9972 90.5751 66.9729 94.5242C66.9685 95.2447 67.1709 95.5433 67.9401 95.5269C69.9472 95.4842 71.9566 95.5457 73.9638 95.5033C76.236 95.4554 78.3859 94.9276 80.2182 93.508C83.295 91.1241 83.9978 87.2774 80.9854 84.282C79.1177 82.4247 76.8255 81.6995 74.3048 81.5947C72.1665 81.5059 70.0211 81.6011 67.8799 81.5605C67.1617 81.547 66.8919 81.8021 66.9844 82.6766Z" fill="#FDFBFB"/>
<path d="M149.835 85.4005C150.423 87.5751 149.553 89.1396 147.953 90.3577C146.257 91.6483 144.353 92.0826 142.299 91.3182C140.093 90.4973 139.474 86.8159 141.779 85.1816C142.32 84.7977 142.89 84.4473 143.397 84.0229C144.377 83.2039 144.42 82.5301 143.581 81.5446C143.347 81.2696 143.08 80.9785 142.764 80.8261C141.689 80.307 141.544 79.4487 141.575 78.3572C141.648 75.7686 141.598 75.7672 144.17 75.7672C156.938 75.7672 169.706 75.7672 182.474 75.7673C183.965 75.7673 183.813 75.7876 183.998 77.2196C184.368 80.0872 183.338 82.1824 181.389 84.3152C174.924 91.389 168.688 98.6713 162.366 105.874C162.214 106.047 162.071 106.227 161.832 106.515C166.587 106.515 171.218 106.515 175.953 106.515C175.831 105.532 175.558 104.547 175.626 103.587C175.715 102.346 175.956 101.085 176.349 99.9047C177.018 97.8965 179.273 97.2473 180.945 97.5203C181.907 97.6775 182.893 98.0476 183.728 98.5529C185.275 99.489 185.306 101.391 183.849 102.467C183.133 102.995 182.306 103.37 181.551 103.849C180.533 104.496 180.358 105.167 180.979 106.207C181.299 106.742 181.664 107.3 182.143 107.677C182.863 108.242 183.056 108.899 182.981 109.759C182.911 110.558 182.954 111.366 182.942 112.17C182.941 112.231 182.901 112.293 182.841 112.463C182.566 112.48 182.247 112.518 181.928 112.518C168.489 112.521 155.051 112.511 141.613 112.541C140.635 112.544 140.288 112.257 140.396 111.297C140.463 110.701 140.486 110.08 140.393 109.491C140.165 108.055 140.811 107.071 141.764 106.073C148.314 99.2101 154.819 92.3041 161.338 85.4122C162.139 84.5657 162.94 83.7199 163.865 82.7432C163.449 82.7099 163.144 82.6645 162.838 82.6642C158.582 82.6596 154.326 82.6695 150.07 82.6507C149.519 82.6483 149.001 82.719 148.896 83.2934C148.834 83.6334 149.062 84.0491 149.225 84.4001C149.378 84.7277 149.618 85.0148 149.835 85.4005Z" fill="#FDFBFB"/>
<path d="M189.863 112.521C189.15 112.613 188.935 112.346 188.952 111.735C188.985 110.53 188.922 109.321 188.985 108.118C189.006 107.732 189.214 107.279 189.482 106.994C196.283 99.781 203.104 92.5873 209.918 85.3863C210.692 84.5683 211.441 83.7269 212.417 82.661C211.805 82.661 211.464 82.661 211.122 82.661C207.034 82.661 202.946 82.6898 198.858 82.6392C197.929 82.6277 197.38 82.8723 197.262 83.8424C200.237 86.7535 197.622 90.5246 194.408 91.4123C193.772 91.588 193.084 91.6775 192.425 91.6562C189.583 91.5643 187.869 88.6795 189.315 86.3115C189.775 85.5579 190.618 85.0063 191.359 84.4619C193.04 83.2264 193.165 82.1072 191.427 80.9504C190.298 80.1991 190.077 79.3374 190.12 78.1247C190.216 75.4109 189.77 75.7743 192.466 75.7722C205.367 75.7622 218.268 75.7675 231.169 75.768C232.533 75.7681 232.425 75.7803 232.557 77.154C232.814 79.8476 232.161 81.9976 230.161 84.0492C226.469 87.8358 223.115 91.9518 219.618 95.9278C216.693 99.2528 213.763 102.573 210.84 105.9C210.698 106.061 210.604 106.264 210.429 106.542C215.145 106.542 219.752 106.542 224.493 106.542C224.441 106.143 224.404 105.765 224.343 105.39C224.04 103.549 224.064 101.761 224.79 99.9804C225.603 97.984 227.916 97.1929 229.674 97.5478C230.536 97.7218 231.413 98.0503 232.163 98.506C233.774 99.4844 233.805 101.454 232.265 102.561C231.542 103.081 230.718 103.458 229.964 103.937C229.199 104.424 228.793 105.064 229.402 105.939C229.853 106.588 230.288 107.266 230.84 107.821C231.302 108.287 231.529 108.738 231.487 109.394C231.435 110.195 231.456 111.002 231.48 111.806C231.495 112.32 231.292 112.552 230.775 112.522C230.508 112.507 230.239 112.521 229.971 112.521C216.634 112.521 203.298 112.521 189.863 112.521Z" fill="#FDFBFB"/>
<path d="M271.744 81.2517C274.431 85.5801 277.081 89.8456 279.737 94.1068C282.004 97.7445 284.275 101.38 286.554 105.01C287.07 105.832 288.114 106.176 288.996 105.819C289.719 105.525 289.779 104.968 289.464 104.34C289.121 103.656 288.727 102.998 288.388 102.313C287.943 101.413 288.149 100.906 289.08 100.507C290.387 99.9483 291.567 100.406 292.702 101.009C294.561 101.996 296.108 103.358 296.617 105.455C297.576 109.411 295.152 112.455 290.93 112.494C284.465 112.555 277.998 112.451 271.532 112.408C270.999 112.405 270.457 112.382 269.938 112.275C269.583 112.201 269.079 112.04 268.973 111.782C268.835 111.445 268.878 110.841 269.105 110.589C269.534 110.115 270.118 109.741 270.7 109.454C271.253 109.182 271.393 108.999 271.021 108.42C269.797 106.517 268.662 104.556 267.431 102.658C267.225 102.34 266.71 102.044 266.337 102.042C261.646 102.016 256.954 102.043 252.263 102.071C252.022 102.072 251.675 102.133 251.56 102.295C250.916 103.201 250.328 104.146 249.551 105.338C250.746 105.338 251.632 105.324 252.517 105.341C254.148 105.372 255.523 105.844 256.302 107.45C257.371 109.652 255.795 112.475 253.356 112.502C248.33 112.559 243.302 112.545 238.275 112.506C236.515 112.492 235.107 110.989 235.011 109.201C234.911 107.327 236.109 105.721 237.914 105.504C239.205 105.349 240.522 105.428 241.819 105.313C242.213 105.278 242.74 105.043 242.933 104.732C243.662 103.554 244.279 102.308 245.004 100.963C244.593 100.822 244.272 100.688 243.938 100.601C242.128 100.132 240.932 98.5084 241.055 96.6691C241.147 95.2886 242.093 94.2507 243.408 94.086C244.875 93.9023 246.072 94.6679 246.473 96.0732C246.591 96.4829 246.644 96.9109 246.759 97.497C247.002 97.2264 247.198 97.0733 247.31 96.8733C249.396 93.1683 251.46 89.451 253.563 85.7555C253.874 85.2086 253.805 84.8852 253.367 84.4678C251.924 83.0913 250.488 81.7041 249.12 80.2543C248.802 79.9174 248.629 79.3195 248.619 78.8369C248.554 75.7683 248.576 75.7678 251.595 75.7678C256.856 75.7678 262.118 75.7798 267.38 75.7538C268.097 75.7503 268.54 75.9661 268.905 76.5978C269.802 78.1491 270.77 79.6599 271.744 81.2517ZM261.062 92.2446C260.552 91.4393 260.042 90.6341 259.413 89.6394C257.586 92.5457 255.837 95.3289 253.957 98.3197C257.319 98.3197 260.419 98.3599 263.516 98.2831C264.082 98.2691 264.487 97.7826 264.006 97.0464C263.006 95.5152 262.075 93.9391 261.062 92.2446Z" fill="#FDFBFB"/>
<path d="M105.897 110.403C106.661 107.276 108.789 105.531 111.595 104.557C112.364 104.29 112.379 103.895 112.379 103.322C112.381 97.9274 112.38 92.5329 112.38 87.1383C112.38 86.3677 112.365 85.5966 112.385 84.8265C112.401 84.2141 112.198 83.8966 111.552 83.6782C108.254 82.5625 106.14 80.4028 105.727 76.8089C105.633 75.9942 105.965 75.7559 106.743 75.7575C115.455 75.7745 124.167 75.7669 132.878 75.7701C133.962 75.7705 134.102 75.9401 133.944 77.0107C133.43 80.4768 131.364 82.608 128.124 83.6772C127.592 83.8529 127.332 84.0425 127.334 84.6214C127.346 91.0546 127.343 97.4878 127.348 103.921C127.348 104.052 127.386 104.182 127.408 104.326C129.812 105.06 131.915 106.227 133.058 108.564C133.515 109.499 133.721 110.566 133.967 111.59C134.126 112.254 133.795 112.533 133.08 112.531C124.268 112.514 115.455 112.514 106.643 112.53C105.85 112.532 105.638 112.167 105.731 111.476C105.776 111.144 105.834 110.814 105.897 110.403Z" fill="#FDFCFC"/>
<path d="M220.349 48.4363C221.244 43.8913 224.341 41.4881 228.326 40.0911C232.336 38.685 236.207 39.215 239.827 41.5005C240.229 41.7541 240.777 41.7754 241.42 41.9481C241.42 41.1952 241.407 40.6999 241.423 40.2055C241.459 39.1046 242.003 38.6667 243.301 38.6759C244.462 38.6842 244.953 39.1054 244.958 40.1734C244.971 42.9889 244.972 45.8046 244.956 48.6201C244.95 49.6638 244.538 50.0417 243.483 50.0724C241.983 50.1159 241.346 49.8141 241.456 48.7758C241.847 45.0564 239.006 44.0894 236.52 42.9154C235.12 42.254 233.573 41.9328 231.946 42.3452C230.68 42.6661 229.808 43.3569 229.528 44.5883C229.252 45.805 229.943 46.8312 230.874 47.4119C232.922 48.6882 235.057 49.8373 237.218 50.9144C239.171 51.8879 241.377 52.44 243.171 53.6309C247.088 56.2322 247.453 61.2107 244.197 64.629C240.956 68.0316 236.96 69.715 232.277 69.5405C230.005 69.4559 227.799 68.8765 225.818 67.6454C225.369 67.3664 224.879 67.1267 224.377 66.966C223.66 66.7368 223.154 67.1214 223.076 67.8674C222.954 69.0274 222.625 69.2735 221.22 69.2526C220.147 69.2367 219.604 68.8024 219.592 67.7954C219.56 64.9468 219.556 62.0974 219.583 59.2487C219.593 58.1906 220.166 57.7876 221.433 57.8047C222.649 57.821 223.105 58.1912 223.058 59.2944C223.027 60.0333 223.315 60.5325 223.8 61.0404C225.857 63.1924 228.258 64.706 231.23 65.2284C232.73 65.4921 234.172 65.3207 235.5 64.5817C237.232 63.6182 237.288 62.1157 235.556 61.136C234.294 60.4225 232.905 59.9226 231.548 59.3897C228.889 58.3452 226.155 57.4505 223.926 55.5646C221.749 53.7236 220.3 51.4933 220.349 48.4363Z" fill="#FCFAFA"/>
<path d="M128.73 67.6448C127.984 67.9381 127.275 68.349 126.563 68.3541C119.76 68.4029 112.956 68.4042 106.152 68.3514C105.452 68.3459 104.572 68.0773 104.113 67.6039C103.74 67.2193 103.657 66.2695 103.85 65.7098C104.006 65.2554 104.722 64.89 105.265 64.6998C105.88 64.4846 106.599 64.5865 107.235 64.4117C108.325 64.1121 109.017 63.4037 109.075 62.2027C109.118 61.3348 109.21 60.4674 109.211 59.5996C109.223 52.9968 109.218 46.3939 109.218 39.7911C109.218 38.8621 109.218 37.933 109.218 36.9268C114.007 36.9268 118.851 36.9268 123.837 36.9268C123.837 37.2622 123.837 37.6171 123.837 37.972C123.837 45.6463 123.837 53.3206 123.838 60.9949C123.838 63.5959 124.635 64.4516 127.251 64.6679C128.911 64.8051 129.583 66.0936 128.73 67.6448Z" fill="#FDFBFB"/>
<path d="M220.771 35.0951C221.673 36.776 222.291 38.4621 222.511 40.3212C222.9 43.6081 220.312 47.3598 216.186 46.6989C213.749 46.3085 211.737 43.592 212.037 41.1356C212.321 38.8153 213.507 37.4265 216.099 36.3605C215.819 35.1504 215.177 34.1998 214.109 33.5429C213.404 33.1092 212.647 32.7474 211.989 32.2534C211.239 31.6911 210.858 30.8581 211.213 29.9544C211.557 29.077 212.42 29.0101 213.257 29.0408C214.795 29.0973 216.163 29.675 217.188 30.7625C218.454 32.1053 219.546 33.6119 220.771 35.0951Z" fill="#FCFAFA"/>
<path d="M139.809 54.2473C139.628 51.8901 140.656 50.1212 142.623 49.2833C144.393 48.5297 146.478 49.0281 147.874 50.5885C149.051 51.9051 149.272 53.4943 148.684 55.0729C148.069 56.7271 146.819 57.826 144.97 57.9934C142.312 58.2339 140.521 56.9366 139.809 54.2473Z" fill="#811517"/>
<path d="M203.409 54.0552C203.095 56.4802 201.169 58.0807 198.723 58.0274C196.427 57.9774 194.448 56.1797 194.251 53.9661C194.05 51.6974 195.639 49.6256 197.826 49.0864C200.723 48.3725 203.872 50.8359 203.409 54.0552Z" fill="#811517"/>
<path d="M66.9844 82.5834C66.8918 81.8024 67.1616 81.5473 67.8798 81.5609C70.021 81.6014 72.1664 81.5062 74.3047 81.595C76.8255 81.6998 79.1176 82.4251 80.9853 84.2823C83.9977 87.2777 83.2949 91.1244 80.2181 93.5083C78.3858 94.9279 76.2359 95.4557 73.9638 95.5036C71.9566 95.546 69.9472 95.4845 67.94 95.5272C67.1708 95.5436 66.9684 95.245 66.9728 94.5245C66.9971 90.5754 66.9844 86.6261 66.9844 82.5834Z" fill="#811517"/>
<path d="M261.089 92.3131C262.075 93.9392 263.006 95.5152 264.006 97.0464C264.487 97.7826 264.082 98.2691 263.516 98.2832C260.419 98.36 257.319 98.3198 253.957 98.3198C255.837 95.3289 257.586 92.5457 259.413 89.6394C260.042 90.6341 260.552 91.4394 261.089 92.3131Z" fill="#851B1E"/>
<defs>
<filter id="filter0_dd_15_1858" x="0" y="0" width="337.062" height="129" filterUnits="userSpaceOnUse" color-interpolation-filters="sRGB">
<feFlood flood-opacity="0" result="BackgroundImageFix"/>
<feColorMatrix in="SourceAlpha" type="matrix" values="0 0 0 0 0 0 0 0 0 0 0 0 0 0 0 0 0 0 127 0" result="hardAlpha"/>
<feOffset dx="1" dy="1"/>
<feGaussianBlur stdDeviation="0.5"/>
<feComposite in2="hardAlpha" operator="out"/>
<feColorMatrix type="matrix" values="0 0 0 0 0 0 0 0 0 0 0 0 0 0 0 0 0 0 0.35 0"/>
<feBlend mode="normal" in2="BackgroundImageFix" result="effect1_dropShadow_15_1858"/>
<feColorMatrix in="SourceAlpha" type="matrix" values="0 0 0 0 0 0 0 0 0 0 0 0 0 0 0 0 0 0 127 0" result="hardAlpha"/>
<feOffset dx="-1" dy="-1"/>
<feGaussianBlur stdDeviation="0.5"/>
<feComposite in2="hardAlpha" operator="out"/>
<feColorMatrix type="matrix" values="0 0 0 0 0 0 0 0 0 0 0 0 0 0 0 0 0 0 0.35 0"/>
<feBlend mode="normal" in2="effect1_dropShadow_15_1858" result="effect2_dropShadow_15_1858"/>
<feBlend mode="normal" in="SourceGraphic" in2="effect2_dropShadow_15_1858" result="shape"/>
</filter>
</defs>
</svg>
