<svg width="44" height="44" viewBox="0 0 44 44" fill="none" xmlns="http://www.w3.org/2000/svg">
<path d="M20 17C20 18.657 18.657 20 17 20H3C1.343 20 0 18.657 0 17V3C0 1.343 1.343 0 3 0H17C18.657 0 20 1.343 20 3V17ZM44 3C44 1.343 42.657 0 41 0H27C25.343 0 24 1.343 24 3V17C24 18.657 25.343 20 27 20H41C42.657 20 44 18.657 44 17V3ZM20 27C20 25.343 18.657 24 17 24H3C1.343 24 0 25.343 0 27V41C0 42.657 1.343 44 3 44H17C18.657 44 20 42.657 20 41V27ZM44 27C44 25.343 42.657 24 41 24H27C25.343 24 24 25.343 24 27V41C24 42.657 25.343 44 27 44H41C42.657 44 44 42.657 44 41V27Z" fill="#47475E"/>
<mask id="mask0_414_1323" style="mask-type:luminance" maskUnits="userSpaceOnUse" x="0" y="0" width="44" height="44">
<path d="M20 17C20 18.657 18.657 20 17 20H3C1.343 20 0 18.657 0 17V3C0 1.343 1.343 0 3 0H17C18.657 0 20 1.343 20 3V17ZM44 3C44 1.343 42.657 0 41 0H27C25.343 0 24 1.343 24 3V17C24 18.657 25.343 20 27 20H41C42.657 20 44 18.657 44 17V3ZM20 27C20 25.343 18.657 24 17 24H3C1.343 24 0 25.343 0 27V41C0 42.657 1.343 44 3 44H17C18.657 44 20 42.657 20 41V27ZM44 27C44 25.343 42.657 24 41 24H27C25.343 24 24 25.343 24 27V41C24 42.657 25.343 44 27 44H41C42.657 44 44 42.657 44 41V27Z" fill="white"/>
</mask>
<g mask="url(#mask0_414_1323)">
<path opacity="0.3" d="M44 0H0V44H44V0Z" fill="#75A2D8"/>
<path opacity="0.3" d="M46 44H8.29797L33.702 0H46V44Z" fill="black"/>
</g>
</svg>
