<svg width="54" height="42" viewBox="0 0 54 42" fill="none" xmlns="http://www.w3.org/2000/svg">
<path d="M54 39C54 40.657 52.657 42 51 42H3C1.343 42 0 40.657 0 39V3C0 1.343 1.343 0 3 0H51C52.657 0 54 1.343 54 3V39Z" fill="#DEDCD9"/>
<mask id="mask0_438_1482" style="mask-type:luminance" maskUnits="userSpaceOnUse" x="0" y="0" width="54" height="42">
<path d="M54 39C54 40.657 52.657 42 51 42H3C1.343 42 0 40.657 0 39V3C0 1.343 1.343 0 3 0H51C52.657 0 54 1.343 54 3V39Z" fill="white"/>
</mask>
<g mask="url(#mask0_438_1482)">
<path d="M0 42H3L75.746 0H0V42Z" fill="white" fill-opacity="0.3"/>
</g>
<path d="M31 4V38H29V4H31ZM50 18H35V20H50V18ZM50 24H35V26H50V24ZM50 30H35V32H50V30ZM50 36H35V38H50V36Z" fill="#231F20" fill-opacity="0.3"/>
<path d="M50 4H38V12H50V4Z" fill="#BCD676"/>
<path opacity="0.6" d="M9.99897 15C11.104 15 12 16.119 12 17.5C12 18.88 11.104 20 9.99897 20C8.89497 20 7.99997 18.881 7.99997 17.5C7.99997 16.119 8.89497 15 9.99897 15Z" fill="#231F20"/>
<path opacity="0.6" d="M18.999 15C20.104 15 21 16.119 21 17.5C21 18.88 20.104 20 18.999 20C17.895 20 17 18.881 17 17.5C17 16.119 17.895 15 18.999 15Z" fill="#231F20"/>
<path opacity="0.6" d="M14.5 30.0001C6.18697 30.0001 4.06497 24.7091 4.00897 24.2901C3.92697 23.6611 4.40897 23.0871 5.08597 23.0061C5.75997 22.9381 6.30497 23.6401 6.46997 24.0001C6.96997 25.0921 8.80797 28.0001 14.499 28.0001C20.19 28.0001 22.028 25.0921 22.528 24.0001C22.693 23.6411 23.238 22.9431 23.92 23.0121C24.597 23.0941 25.071 23.6671 24.99 24.2951C24.934 24.7151 22.813 30.0001 14.5 30.0001Z" fill="#231F20"/>
</svg>
